# xmcd
#
# Track frame offsets:
# 150
# 27361
# 39839
# 60344
# 82207
# 111403
# 136800
# 173442
# 180614
# 200137
# 212768
# 229114
# 251923
# 280199
#
# Disc length: 4395 seconds
#
#
# Revision: 0
# Processed by: cddbd v1.5.1PL0 Copyright (c) Steve Scherf et al.
# Submitted via: FreeRIP 2.80 
#
DISCID=c511290e
DTITLE=The Bathers - Live At The Mitchell Theatre 1994 [CD1]
DYEAR=1994
DGENRE=Blues
TTITLE0=Carnival
TTITLE1=Fermina Fair
TTITLE2=Sweetheart Sessions
TTITLE3=2 Cats On The Piano
TTITLE4=Via D'Oro
TTITLE5=Ave The Leopards
TTITLE6=The Idyll Off Crown Circus
TTITLE7=Lolita
TTITLE8=Pursuit Of An Orchid
TTITLE9=Moon 3
TTITLE10=Unusual Place To Die
TTITLE11=Universal Thirst
TTITLE12=Perpetual Adoration
TTITLE13=For The Delicious "C"
EXTD=
EXTT0=
EXTT1=
EXTT2=
EXTT3=
EXTT4=
EXTT5=
EXTT6=
EXTT7=
EXTT8=
EXTT9=
EXTT10=
EXTT11=
EXTT12=
EXTT13=
PLAYORDER=
